<svg xmlns="http://www.w3.org/2000/svg" viewBox="0 0 1523.42 310.42"><defs><style>.cls-1{fill:#231f20;}</style></defs><title>after</title><g id="Layer_2" data-name="Layer 2"><g id="Capa_1" data-name="Capa 1"><path class="cls-1" d="M1516.46,7.52l-144.62-.17-3-.09L1367.68,10c-12.4,28.92-52.31,69.65-102.25,69.65-44.54,0-79.15-21.35-85-25.33-39.26,21.1-142,21.64-163.35,28.11C974.63-1.83,904.37-.14,901.13,0,774,0,761.71,77.89,761.71,77.89S749.38,0,622.29,0c-3.24-.17-73.5-1.86-115.9,82.41C485.05,76,382.3,75.43,343,54.33c-5.9,4-40.5,25.33-85.05,25.33-49.93,0-89.85-40.73-102.25-69.65l-1.17-2.75-3,.09L7,7.52,0,7.73l3.2,6.18L19.63,45.69l1.26,2.42,2.73,0L76.21,47l5.46-.12-1.3-5.3A148.45,148.45,0,0,0,69.21,14.4l79.72,1.79C163.54,47.09,205.64,88.43,258,88.43c45.4,0,77.55-18.6,86.13-24.28C365.6,75.33,403,81,437.26,84.77c-31.48,6.75-33,33.51-33,42.05,0,9.8,6.86,24,31.36,24,18.62,0,22.05-20.57,22.05-20.57s-3.92,14.21-25,14.21-22.54-17.64-22.54-21.56,1.47-25.48,26.46-25.48,29.4,22.54,51,16.17c0,0-9.8,2.45-9.8,16.66s22.54,18.62,36.74,10.78c0,0-10.77-3.92-9.79-13.23S517,120,532.65,132.21s50.47,90.64,119.06,90.64c58.8,0,71.54-36.75,71.54-36.75s-18.13,19.6-45.57,19.6S640,195.9,640,195.9s5.88-5.88,5.88-13.72S640,151.8,608.6,151.8c-18.13,0-15.19,18.62-15.19,18.62s-21.07-18.62-21.07-42.13S591,87.13,616.44,87.13s26.45,21.07,26.45,21.07-25-4.9-25,17.15c0,14.7,15.68,19.11,23,19.11s23-5.39,23-26.95-20.58-35.77-48.5-35.77-51,14.7-51,55.86c0,21.55,24.5,42.13,24.5,42.13s-4.66-2.2-18.13-15.68c-10.89-10.88-38.09-57-82.77-74.24,10,1.07,17.84,2.15,22.16,3.45C552.72,6.84,619.59,9.1,620.11,9.28c108.11,0,104.26,79,104.26,86.31s-4.39,48.94-27.76,48.94-11.69-27-11.69-27c-16.06,12.42-18.26,32.87-18.26,32.87s-4.38,32.87,30,36.52c26.15,2.78,40.91-17.53,40.91-17.53-20.46,27.76-9.5,46.75,7.3,76.7s16.89,64.36,16.89,64.36.09-34.42,16.89-64.36,27.76-48.94,7.31-76.7c0,0,14.75,20.31,40.9,17.53,34.33-3.65,30-36.52,30-36.52s-2.19-20.45-18.26-32.87c0,0,11.68,27-11.69,27s-27.76-41.64-27.76-48.94S795.21,9.28,903.31,9.28c.52-.18,67.39-2.44,109.85,84,4.32-1.3,12.13-2.38,22.17-3.45-44.69,17.29-71.89,63.36-82.78,74.24-13.47,13.48-18.13,15.68-18.13,15.68s24.5-20.58,24.5-42.13c0-41.16-23-55.86-51-55.86s-48.5,14.21-48.5,35.77,15.68,27,23,27,23-4.41,23-19.11c0-22-25-17.15-25-17.15s1-21.07,26.45-21.07,44.1,17.64,44.1,41.16S930,170.42,930,170.42,933,151.8,914.82,151.8c-31.35,0-37.23,22.54-37.23,30.38s5.88,13.72,5.88,13.72-10.29,9.8-37.73,9.8-45.57-19.6-45.57-19.6,12.74,36.75,71.54,36.75c68.59,0,103.38-78.39,119.06-90.64s27-13.72,27.93-4.41-9.8,13.23-9.8,13.23c14.21,7.84,36.74,3.43,36.74-10.78s-9.8-16.66-9.8-16.66c21.56,6.37,26-16.17,51-16.17s26.46,21.56,26.46,25.48-1.47,21.56-22.54,21.56-25-14.21-25-14.21,3.43,20.57,22,20.57c24.5,0,31.36-14.2,31.36-24,0-8.54-1.49-35.3-33-42,34.26-3.74,71.66-9.44,93.14-20.62,8.58,5.68,40.74,24.28,86.13,24.28,52.35,0,94.45-41.34,109.06-72.24l79.72-1.79a148.45,148.45,0,0,0-11.16,27.14l-1.3,5.3,5.46.12,52.59,1.1,2.73,0,1.26-2.42,16.43-31.78,3.2-6.18Z"/></g></g></svg>