<svg xmlns="http://www.w3.org/2000/svg" xmlns:xlink="http://www.w3.org/1999/xlink" viewBox="0 0 518.81 660.43"><defs><style>.cls-1,.cls-11{fill:none;}.cls-2{isolation:isolate;}.cls-3{clip-path:url(#clip-path);}.cls-10,.cls-4,.cls-7,.cls-9{opacity:0.49;}.cls-10,.cls-4,.cls-7,.cls-8,.cls-9{mix-blend-mode:screen;}.cls-4{fill:url(#linear-gradient);}.cls-5{fill:#01498f;}.cls-6{fill:#004180;}.cls-7{fill:url(#linear-gradient-2);}.cls-8{opacity:0.17;fill:url(#linear-gradient-3);}.cls-9{fill:url(#linear-gradient-4);}.cls-10{fill:url(#linear-gradient-5);}.cls-11{stroke:#b8faff;stroke-miterlimit:10;stroke-width:0.25px;}</style><clipPath id="clip-path" transform="translate(-234.71)"><rect class="cls-1" y="159.58" width="616.8" height="385.5" rx="11.73"/></clipPath><linearGradient id="linear-gradient" x1="527.82" y1="94.82" x2="527.82" y2="561.33" gradientUnits="userSpaceOnUse"><stop offset="0" stop-color="#fff"/><stop offset="0.05" stop-color="#e9e9e9"/><stop offset="0.2" stop-color="#acacac"/><stop offset="0.35" stop-color="#777"/><stop offset="0.5" stop-color="#4c4c4c"/><stop offset="0.64" stop-color="#2b2b2b"/><stop offset="0.77" stop-color="#131313"/><stop offset="0.9" stop-color="#050505"/><stop offset="1"/></linearGradient><linearGradient id="linear-gradient-2" x1="520.19" y1="333.04" x2="694.41" y2="507.26" gradientTransform="matrix(0.95, 0.32, -0.32, 0.95, 176.08, -182.24)" xlink:href="#linear-gradient"/><linearGradient id="linear-gradient-3" x1="-66.95" y1="593.96" x2="109.99" y2="770.9" gradientTransform="translate(759.92 781.03) rotate(150.32)" xlink:href="#linear-gradient"/><linearGradient id="linear-gradient-4" x1="277.51" y1="342.92" x2="574.91" y2="640.33" gradientTransform="translate(-301.1 447.72) rotate(-43.53)" xlink:href="#linear-gradient"/><linearGradient id="linear-gradient-5" x1="607.87" y1="153.55" x2="905.28" y2="450.96" gradientTransform="translate(-301.1 447.72) rotate(-43.53)" xlink:href="#linear-gradient"/></defs><title>shasmim</title><g class="cls-2"><g id="Layer_2" data-name="Layer 2"><g id="OBJECTS"><g class="cls-3"><path class="cls-4" d="M674.41,481.44a125.85,125.85,0,0,0,27-54.13c6.67-29.9,17.07-58.86,32.07-85.56,35.82-63.76,23.54-147-35.5-197a157.27,157.27,0,0,0-178.46-17.31c-28.93,16.17-62.27,23.19-95,18.12A106.19,106.19,0,0,0,327,181.87C298.1,216,295.14,263.1,314.14,300a146.81,146.81,0,0,1,9.5,111.91c-18.71,58.44-2.49,125.87,47.86,168.53,69.88,59.21,171.91,45.2,225.15-22.39a345.78,345.78,0,0,1,59-58.56A125.71,125.71,0,0,0,674.41,481.44Z" transform="translate(-234.71)"/><path class="cls-5" d="M731.24,421a126,126,0,0,0,8.94-59.82c-2.89-30.49-1.93-61.24,4.1-91.28,14.38-71.7-23-147.07-94.58-176.43A157.28,157.28,0,0,0,474.61,132c-22.53,24.31-52.06,41.28-84.78,46.56a106.21,106.21,0,0,0-81.5,64.63c-17,41.36-5.23,87.09,24.22,116.31a146.79,146.79,0,0,1,43.58,103.51c.23,61.36,36.47,120.49,97.54,145.53,84.74,34.75,177.46-10.07,207.24-90.79A345.85,345.85,0,0,1,719,443.88,126.48,126.48,0,0,0,731.24,421Z" transform="translate(-234.71)"/><path class="cls-6" d="M744.28,269.86c14.38-71.7-23-147.07-94.58-176.43A157.28,157.28,0,0,0,474.61,132c-22.53,24.31-52.06,41.28-84.78,46.56a106.88,106.88,0,0,0-28.57,8.86,108.89,108.89,0,0,0,25.6,40.19,146.84,146.84,0,0,1,43.58,103.51c.23,61.36,36.47,120.49,97.53,145.53,84.74,34.75,177.47-10.07,207.25-90.79q2.6-7,5.51-13.95c0-3.62-.21-7.23-.55-10.81C737.29,330.65,738.25,299.9,744.28,269.86Z" transform="translate(-234.71)"/><path class="cls-7" d="M581.92,517.5a47.13,47.13,0,0,0,17.17,14.75,117.27,117.27,0,0,1,28.1,19.5A58.88,58.88,0,0,0,724.6,493.8a55.6,55.6,0,0,1,2.16-36.14,39.74,39.74,0,0,0-45.9-54.21,55,55,0,0,1-41.48-6.83,58.87,58.87,0,0,0-78.1,85.63A129.28,129.28,0,0,1,577.11,509,47.24,47.24,0,0,0,581.92,517.5Z" transform="translate(-234.71)"/><path class="cls-8" d="M346.38,95.46a48,48,0,0,0-22.8,3,119.12,119.12,0,0,1-33.8,8A59.8,59.8,0,0,0,267.4,219.32a56.45,56.45,0,0,1,25.84,26.17,40.36,40.36,0,0,0,72.11,2.14,55.79,55.79,0,0,1,33.32-26.69A59.79,59.79,0,0,0,387,103.81a131.74,131.74,0,0,1-31-6.24A47.75,47.75,0,0,0,346.38,95.46Z" transform="translate(-234.71)"/><path class="cls-9" d="M480.91,656.35a80.57,80.57,0,0,0,36-14,200.15,200.15,0,0,1,52-26.63A100.53,100.53,0,0,0,560,422.45c-20.63-4.8-39.4-15.82-52.69-32.3a67.84,67.84,0,0,0-61.67-24.76c-28.32,3.68-50,24.68-56.87,50.27a93.78,93.78,0,0,1-43.64,57c-34,19.56-55.31,58.39-49.87,100.21,7.55,58,61.78,95.29,116,86.25a220.91,220.91,0,0,1,53.08-2.27A81.24,81.24,0,0,0,480.91,656.35Z" transform="translate(-234.71)"/><path class="cls-10" d="M590,291.54a80.47,80.47,0,0,0,36-14,200.46,200.46,0,0,1,52-26.63,100.52,100.52,0,0,0-8.91-193.28c-20.62-4.8-39.39-15.82-52.68-32.31A67.86,67.86,0,0,0,554.71.58c-28.33,3.68-50,24.67-56.87,50.27a93.85,93.85,0,0,1-43.65,57c-34,19.56-55.31,58.39-49.87,100.21,7.55,58,61.78,95.29,116,86.25A221.36,221.36,0,0,1,573.4,292,81.21,81.21,0,0,0,590,291.54Z" transform="translate(-234.71)"/><path class="cls-11" d="M308.11,184.3a35.24,35.24,0,0,0,16.95.52A87.86,87.86,0,0,1,350.62,183a44.13,44.13,0,0,0,29.54-79.64A41.63,41.63,0,0,1,364.4,81.24a29.78,29.78,0,0,0-52.27-10,41.19,41.19,0,0,1-27.41,15.54,44.12,44.12,0,0,0-5.24,86.69,96.33,96.33,0,0,1,21.84,8.18A36.3,36.3,0,0,0,308.11,184.3Z" transform="translate(-234.71)"/><path class="cls-11" d="M419.52,618.74a35.25,35.25,0,0,0,17,.53A87.86,87.86,0,0,1,462,617.41a44.12,44.12,0,0,0,29.54-79.63,41.65,41.65,0,0,1-15.75-22.09,29.78,29.78,0,0,0-52.28-10,41.14,41.14,0,0,1-27.4,15.53,44.12,44.12,0,0,0-5.24,86.69,97.39,97.39,0,0,1,21.83,8.18A35.23,35.23,0,0,0,419.52,618.74Z" transform="translate(-234.71)"/></g></g></g></g></svg>